<svg width="29" height="24" viewBox="0 0 29 24" fill="none" xmlns="http://www.w3.org/2000/svg">
<path d="M8.73301 24C7.88856 24 7.16634 23.6944 6.56634 23.0833C5.96634 22.4722 5.66634 21.7444 5.66634 20.9V8.53333L3.23301 2.66667H0.333008V0H5.03301L7.23301 5.33333H26.933C27.4441 5.33333 27.833 5.54444 28.0997 5.96667C28.3663 6.38889 28.3775 6.82222 28.133 7.26667L24.333 14.7C25.4663 14.8778 26.4163 15.4 27.183 16.2667C27.9497 17.1333 28.333 18.1556 28.333 19.3333C28.333 20.6222 27.883 21.7222 26.983 22.6333C26.083 23.5444 24.9886 24 23.6997 24C22.3886 24 21.283 23.5444 20.383 22.6333C19.483 21.7222 19.033 20.6222 19.033 19.3333C19.033 18.8889 19.0886 18.4778 19.1997 18.1C19.3108 17.7222 19.4663 17.3556 19.6663 17L15.2997 16.6L11.2997 22.6C11.0108 23.0444 10.6386 23.3889 10.183 23.6333C9.72745 23.8778 9.24412 24 8.73301 24ZM21.4663 14.5L24.7663 8L8.33301 8.03333L9.99967 12C10.1775 12.4444 10.4608 12.8167 10.8497 13.1167C11.2386 13.4167 11.6886 13.5889 12.1997 13.6333L21.4663 14.5ZM8.76634 21.3C8.81079 21.3 8.91079 21.2444 9.06634 21.1333L12.2997 16.3333C11.2108 16.2222 10.3552 15.9611 9.73301 15.55C9.11079 15.1389 8.64412 14.7111 8.33301 14.2667V20.9333C8.33301 21.0444 8.37745 21.1333 8.46634 21.2C8.55523 21.2667 8.65523 21.3 8.76634 21.3ZM23.6663 21.3333C24.2441 21.3333 24.7219 21.1389 25.0997 20.75C25.4775 20.3611 25.6663 19.8889 25.6663 19.3333C25.6663 18.7556 25.4775 18.2778 25.0997 17.9C24.7219 17.5222 24.2441 17.3333 23.6663 17.3333C23.1108 17.3333 22.6386 17.5222 22.2497 17.9C21.8608 18.2778 21.6663 18.7556 21.6663 19.3333C21.6663 19.8889 21.8608 20.3611 22.2497 20.75C22.6386 21.1389 23.1108 21.3333 23.6663 21.3333Z" fill="#D5D5D5"/>
</svg>
