<svg width="16" height="12" viewBox="0 0 16 12" fill="none" xmlns="http://www.w3.org/2000/svg">
<path d="M15.0266 2.27984C14.9474 1.96344 14.7862 1.67355 14.5591 1.43944C14.332 1.20533 14.0471 1.03529 13.7333 0.946504C12.5866 0.666504 7.99997 0.666504 7.99997 0.666504C7.99997 0.666504 3.41331 0.666504 2.26664 0.973171C1.95281 1.06196 1.66796 1.232 1.44087 1.46611C1.21378 1.70022 1.0525 1.99011 0.973308 2.3065C0.763451 3.47021 0.660798 4.65071 0.666641 5.83317C0.65916 7.02453 0.761819 8.21404 0.973308 9.3865C1.06061 9.69307 1.22551 9.97193 1.45207 10.1962C1.67863 10.4204 1.95919 10.5824 2.26664 10.6665C3.41331 10.9732 7.99997 10.9732 7.99997 10.9732C7.99997 10.9732 12.5866 10.9732 13.7333 10.6665C14.0471 10.5777 14.332 10.4077 14.5591 10.1736C14.7862 9.93946 14.9474 9.64956 15.0266 9.33317C15.2349 8.17823 15.3375 7.00673 15.3333 5.83317C15.3408 4.64181 15.2381 3.4523 15.0266 2.27984Z" stroke="#100E16" stroke-width="1.33333" stroke-linecap="round" stroke-linejoin="round"/>
<path d="M6.49997 8.01317L10.3333 5.83317L6.49997 3.65317V8.01317Z" stroke="#100E16" stroke-width="1.33333" stroke-linecap="round" stroke-linejoin="round"/>
</svg>
